<mxfile host="app.diagrams.net" modified="2024-01-30T16:47:20.466Z" agent="Mozilla/5.0 (Macintosh; Intel Mac OS X 10_15_7) AppleWebKit/537.36 (KHTML, like Gecko) Chrome/120.0.0.0 Safari/537.36" etag="AcuPKRGIXA4a8og-MasZ" version="23.0.2" type="device">
  <diagram id="C5RBs43oDa-KdzZeNtuy" name="Song-Creation-Process">
    <mxGraphModel dx="3895" dy="2735" grid="1" gridSize="10" guides="1" tooltips="1" connect="1" arrows="1" fold="1" page="1" pageScale="1" pageWidth="827" pageHeight="1169" math="0" shadow="0">
      <root>
        <mxCell id="WIyWlLk6GJQsqaUBKTNV-0" />
        <mxCell id="WIyWlLk6GJQsqaUBKTNV-1" parent="WIyWlLk6GJQsqaUBKTNV-0" />
        <mxCell id="CQ69N3TDRFw6adATMWHt-1" value="" style="rounded=0;whiteSpace=wrap;html=1;" vertex="1" parent="WIyWlLk6GJQsqaUBKTNV-1">
          <mxGeometry x="-80" y="150" width="1220" height="260" as="geometry" />
        </mxCell>
        <mxCell id="WIyWlLk6GJQsqaUBKTNV-2" value="" style="rounded=0;html=1;jettySize=auto;orthogonalLoop=1;fontSize=11;endArrow=block;endFill=0;endSize=8;strokeWidth=1;shadow=0;labelBackgroundColor=none;edgeStyle=orthogonalEdgeStyle;entryX=0;entryY=0;entryDx=0;entryDy=65;entryPerimeter=0;" parent="WIyWlLk6GJQsqaUBKTNV-1" source="WIyWlLk6GJQsqaUBKTNV-3" target="CQ69N3TDRFw6adATMWHt-0" edge="1">
          <mxGeometry relative="1" as="geometry">
            <mxPoint x="120" y="130" as="targetPoint" />
          </mxGeometry>
        </mxCell>
        <mxCell id="CQ69N3TDRFw6adATMWHt-4" value="Export" style="edgeLabel;html=1;align=center;verticalAlign=middle;resizable=0;points=[];" vertex="1" connectable="0" parent="WIyWlLk6GJQsqaUBKTNV-2">
          <mxGeometry x="0.02" y="-3" relative="1" as="geometry">
            <mxPoint x="-1" y="-11" as="offset" />
          </mxGeometry>
        </mxCell>
        <mxCell id="WIyWlLk6GJQsqaUBKTNV-3" value="Abelton Live" style="rounded=1;whiteSpace=wrap;html=1;fontSize=12;glass=0;strokeWidth=1;shadow=0;" parent="WIyWlLk6GJQsqaUBKTNV-1" vertex="1">
          <mxGeometry x="-470" y="280" width="120" height="40" as="geometry" />
        </mxCell>
        <mxCell id="CQ69N3TDRFw6adATMWHt-12" style="edgeStyle=orthogonalEdgeStyle;rounded=0;orthogonalLoop=1;jettySize=auto;html=1;entryX=0;entryY=0.5;entryDx=0;entryDy=0;exitX=1;exitY=0;exitDx=0;exitDy=0;" edge="1" parent="WIyWlLk6GJQsqaUBKTNV-1" source="WIyWlLk6GJQsqaUBKTNV-6" target="WIyWlLk6GJQsqaUBKTNV-7">
          <mxGeometry relative="1" as="geometry">
            <Array as="points">
              <mxPoint x="395" y="225" />
            </Array>
          </mxGeometry>
        </mxCell>
        <mxCell id="CQ69N3TDRFw6adATMWHt-17" value="Song" style="edgeLabel;html=1;align=center;verticalAlign=middle;resizable=0;points=[];" vertex="1" connectable="0" parent="CQ69N3TDRFw6adATMWHt-12">
          <mxGeometry x="0.1291" y="-3" relative="1" as="geometry">
            <mxPoint x="22" y="-3" as="offset" />
          </mxGeometry>
        </mxCell>
        <mxCell id="CQ69N3TDRFw6adATMWHt-16" style="edgeStyle=orthogonalEdgeStyle;rounded=0;orthogonalLoop=1;jettySize=auto;html=1;entryX=0;entryY=0.5;entryDx=0;entryDy=0;exitX=1;exitY=1;exitDx=0;exitDy=0;" edge="1" parent="WIyWlLk6GJQsqaUBKTNV-1" source="WIyWlLk6GJQsqaUBKTNV-6" target="CQ69N3TDRFw6adATMWHt-15">
          <mxGeometry relative="1" as="geometry">
            <Array as="points">
              <mxPoint x="395" y="340" />
            </Array>
          </mxGeometry>
        </mxCell>
        <mxCell id="CQ69N3TDRFw6adATMWHt-18" value="Riff" style="edgeLabel;html=1;align=center;verticalAlign=middle;resizable=0;points=[];" vertex="1" connectable="0" parent="CQ69N3TDRFw6adATMWHt-16">
          <mxGeometry x="0.0933" y="-1" relative="1" as="geometry">
            <mxPoint x="-55" y="-1" as="offset" />
          </mxGeometry>
        </mxCell>
        <mxCell id="WIyWlLk6GJQsqaUBKTNV-6" value="Song Type?" style="rhombus;whiteSpace=wrap;html=1;shadow=0;fontFamily=Helvetica;fontSize=12;align=center;strokeWidth=1;spacing=6;spacingTop=-4;" parent="WIyWlLk6GJQsqaUBKTNV-1" vertex="1">
          <mxGeometry x="280" y="245" width="100" height="80" as="geometry" />
        </mxCell>
        <mxCell id="CQ69N3TDRFw6adATMWHt-14" style="edgeStyle=orthogonalEdgeStyle;rounded=0;orthogonalLoop=1;jettySize=auto;html=1;" edge="1" parent="WIyWlLk6GJQsqaUBKTNV-1" source="WIyWlLk6GJQsqaUBKTNV-7" target="CQ69N3TDRFw6adATMWHt-13">
          <mxGeometry relative="1" as="geometry" />
        </mxCell>
        <mxCell id="WIyWlLk6GJQsqaUBKTNV-7" value="Upload to Soundcloud" style="rounded=1;whiteSpace=wrap;html=1;fontSize=12;glass=0;strokeWidth=1;shadow=0;" parent="WIyWlLk6GJQsqaUBKTNV-1" vertex="1">
          <mxGeometry x="480" y="205" width="120" height="40" as="geometry" />
        </mxCell>
        <mxCell id="CQ69N3TDRFw6adATMWHt-8" style="edgeStyle=orthogonalEdgeStyle;rounded=0;orthogonalLoop=1;jettySize=auto;html=1;entryX=0;entryY=0.5;entryDx=0;entryDy=0;" edge="1" parent="WIyWlLk6GJQsqaUBKTNV-1" source="WIyWlLk6GJQsqaUBKTNV-12" target="CQ69N3TDRFw6adATMWHt-6">
          <mxGeometry relative="1" as="geometry" />
        </mxCell>
        <mxCell id="WIyWlLk6GJQsqaUBKTNV-12" value="Mastering" style="rounded=1;whiteSpace=wrap;html=1;fontSize=12;glass=0;strokeWidth=1;shadow=0;" parent="WIyWlLk6GJQsqaUBKTNV-1" vertex="1">
          <mxGeometry x="-40" y="265" width="120" height="40" as="geometry" />
        </mxCell>
        <mxCell id="CQ69N3TDRFw6adATMWHt-3" style="edgeStyle=orthogonalEdgeStyle;rounded=0;orthogonalLoop=1;jettySize=auto;html=1;" edge="1" parent="WIyWlLk6GJQsqaUBKTNV-1" source="CQ69N3TDRFw6adATMWHt-0" target="CQ69N3TDRFw6adATMWHt-28">
          <mxGeometry relative="1" as="geometry">
            <mxPoint x="-130" y="330" as="targetPoint" />
          </mxGeometry>
        </mxCell>
        <mxCell id="CQ69N3TDRFw6adATMWHt-59" value="Audio" style="edgeLabel;html=1;align=center;verticalAlign=middle;resizable=0;points=[];" vertex="1" connectable="0" parent="CQ69N3TDRFw6adATMWHt-3">
          <mxGeometry x="-0.3519" y="-1" relative="1" as="geometry">
            <mxPoint x="4" y="-11" as="offset" />
          </mxGeometry>
        </mxCell>
        <mxCell id="CQ69N3TDRFw6adATMWHt-0" value="wav" style="shape=card;whiteSpace=wrap;html=1;" vertex="1" parent="WIyWlLk6GJQsqaUBKTNV-1">
          <mxGeometry x="-270" y="235" width="80" height="100" as="geometry" />
        </mxCell>
        <mxCell id="CQ69N3TDRFw6adATMWHt-2" value="&lt;h1&gt;Workstation&lt;/h1&gt;" style="text;html=1;strokeColor=none;fillColor=none;spacing=5;spacingTop=-20;whiteSpace=wrap;overflow=hidden;rounded=0;" vertex="1" parent="WIyWlLk6GJQsqaUBKTNV-1">
          <mxGeometry x="-70" y="160" width="190" height="40" as="geometry" />
        </mxCell>
        <mxCell id="CQ69N3TDRFw6adATMWHt-11" style="edgeStyle=orthogonalEdgeStyle;rounded=0;orthogonalLoop=1;jettySize=auto;html=1;entryX=0;entryY=0.5;entryDx=0;entryDy=0;" edge="1" parent="WIyWlLk6GJQsqaUBKTNV-1" source="CQ69N3TDRFw6adATMWHt-6" target="WIyWlLk6GJQsqaUBKTNV-6">
          <mxGeometry relative="1" as="geometry" />
        </mxCell>
        <mxCell id="CQ69N3TDRFw6adATMWHt-6" value="Analysis" style="rounded=1;whiteSpace=wrap;html=1;fontSize=12;glass=0;strokeWidth=1;shadow=0;" vertex="1" parent="WIyWlLk6GJQsqaUBKTNV-1">
          <mxGeometry x="120" y="265" width="120" height="40" as="geometry" />
        </mxCell>
        <mxCell id="CQ69N3TDRFw6adATMWHt-22" style="edgeStyle=orthogonalEdgeStyle;rounded=0;orthogonalLoop=1;jettySize=auto;html=1;entryX=0;entryY=0.5;entryDx=0;entryDy=0;" edge="1" parent="WIyWlLk6GJQsqaUBKTNV-1" source="CQ69N3TDRFw6adATMWHt-13" target="CQ69N3TDRFw6adATMWHt-19">
          <mxGeometry relative="1" as="geometry" />
        </mxCell>
        <mxCell id="CQ69N3TDRFw6adATMWHt-13" value="Upload to Apple Music" style="rounded=1;whiteSpace=wrap;html=1;fontSize=12;glass=0;strokeWidth=1;shadow=0;" vertex="1" parent="WIyWlLk6GJQsqaUBKTNV-1">
          <mxGeometry x="640" y="205" width="120" height="40" as="geometry" />
        </mxCell>
        <mxCell id="CQ69N3TDRFw6adATMWHt-21" style="edgeStyle=orthogonalEdgeStyle;rounded=0;orthogonalLoop=1;jettySize=auto;html=1;entryX=0;entryY=0.5;entryDx=0;entryDy=0;" edge="1" parent="WIyWlLk6GJQsqaUBKTNV-1" source="CQ69N3TDRFw6adATMWHt-15" target="CQ69N3TDRFw6adATMWHt-19">
          <mxGeometry relative="1" as="geometry" />
        </mxCell>
        <mxCell id="CQ69N3TDRFw6adATMWHt-15" value="Upload to Selling Distributor" style="rounded=1;whiteSpace=wrap;html=1;fontSize=12;glass=0;strokeWidth=1;shadow=0;" vertex="1" parent="WIyWlLk6GJQsqaUBKTNV-1">
          <mxGeometry x="640" y="320" width="120" height="40" as="geometry" />
        </mxCell>
        <mxCell id="CQ69N3TDRFw6adATMWHt-62" style="edgeStyle=orthogonalEdgeStyle;rounded=0;orthogonalLoop=1;jettySize=auto;html=1;entryX=0;entryY=0.5;entryDx=0;entryDy=0;" edge="1" parent="WIyWlLk6GJQsqaUBKTNV-1" source="CQ69N3TDRFw6adATMWHt-19" target="CQ69N3TDRFw6adATMWHt-61">
          <mxGeometry relative="1" as="geometry" />
        </mxCell>
        <mxCell id="CQ69N3TDRFw6adATMWHt-19" value="Create Article in Contentful" style="rounded=1;whiteSpace=wrap;html=1;fontSize=12;glass=0;strokeWidth=1;shadow=0;" vertex="1" parent="WIyWlLk6GJQsqaUBKTNV-1">
          <mxGeometry x="830" y="265" width="120" height="40" as="geometry" />
        </mxCell>
        <mxCell id="CQ69N3TDRFw6adATMWHt-23" value="Song" style="swimlane;fontStyle=0;childLayout=stackLayout;horizontal=1;startSize=30;horizontalStack=0;resizeParent=1;resizeParentMax=0;resizeLast=0;collapsible=1;marginBottom=0;whiteSpace=wrap;html=1;" vertex="1" parent="WIyWlLk6GJQsqaUBKTNV-1">
          <mxGeometry x="-240" y="-10" width="140" height="180" as="geometry">
            <mxRectangle x="-240" y="70" width="70" height="30" as="alternateBounds" />
          </mxGeometry>
        </mxCell>
        <mxCell id="CQ69N3TDRFw6adATMWHt-24" value="songType" style="text;strokeColor=none;fillColor=none;align=left;verticalAlign=middle;spacingLeft=4;spacingRight=4;overflow=hidden;points=[[0,0.5],[1,0.5]];portConstraint=eastwest;rotatable=0;whiteSpace=wrap;html=1;" vertex="1" parent="CQ69N3TDRFw6adATMWHt-23">
          <mxGeometry y="30" width="140" height="30" as="geometry" />
        </mxCell>
        <mxCell id="CQ69N3TDRFw6adATMWHt-25" value="name" style="text;strokeColor=none;fillColor=none;align=left;verticalAlign=middle;spacingLeft=4;spacingRight=4;overflow=hidden;points=[[0,0.5],[1,0.5]];portConstraint=eastwest;rotatable=0;whiteSpace=wrap;html=1;" vertex="1" parent="CQ69N3TDRFw6adATMWHt-23">
          <mxGeometry y="60" width="140" height="30" as="geometry" />
        </mxCell>
        <mxCell id="CQ69N3TDRFw6adATMWHt-32" value="tags" style="text;strokeColor=none;fillColor=none;align=left;verticalAlign=middle;spacingLeft=4;spacingRight=4;overflow=hidden;points=[[0,0.5],[1,0.5]];portConstraint=eastwest;rotatable=0;whiteSpace=wrap;html=1;" vertex="1" parent="CQ69N3TDRFw6adATMWHt-23">
          <mxGeometry y="90" width="140" height="30" as="geometry" />
        </mxCell>
        <mxCell id="CQ69N3TDRFw6adATMWHt-33" value="structure" style="text;strokeColor=none;fillColor=none;align=left;verticalAlign=middle;spacingLeft=4;spacingRight=4;overflow=hidden;points=[[0,0.5],[1,0.5]];portConstraint=eastwest;rotatable=0;whiteSpace=wrap;html=1;" vertex="1" parent="CQ69N3TDRFw6adATMWHt-23">
          <mxGeometry y="120" width="140" height="30" as="geometry" />
        </mxCell>
        <mxCell id="CQ69N3TDRFw6adATMWHt-34" value="bpm" style="text;strokeColor=none;fillColor=none;align=left;verticalAlign=middle;spacingLeft=4;spacingRight=4;overflow=hidden;points=[[0,0.5],[1,0.5]];portConstraint=eastwest;rotatable=0;whiteSpace=wrap;html=1;" vertex="1" parent="CQ69N3TDRFw6adATMWHt-23">
          <mxGeometry y="150" width="140" height="30" as="geometry" />
        </mxCell>
        <mxCell id="CQ69N3TDRFw6adATMWHt-29" value="" style="edgeStyle=orthogonalEdgeStyle;rounded=0;orthogonalLoop=1;jettySize=auto;html=1;" edge="1" parent="WIyWlLk6GJQsqaUBKTNV-1" source="CQ69N3TDRFw6adATMWHt-23" target="CQ69N3TDRFw6adATMWHt-28">
          <mxGeometry relative="1" as="geometry">
            <mxPoint x="-120" y="290" as="targetPoint" />
            <mxPoint x="-120" y="160" as="sourcePoint" />
            <Array as="points">
              <mxPoint x="-110" y="190" />
              <mxPoint x="-110" y="190" />
            </Array>
          </mxGeometry>
        </mxCell>
        <mxCell id="CQ69N3TDRFw6adATMWHt-31" value="Trigger" style="edgeLabel;html=1;align=center;verticalAlign=middle;resizable=0;points=[];" vertex="1" connectable="0" parent="CQ69N3TDRFw6adATMWHt-29">
          <mxGeometry x="0.1431" relative="1" as="geometry">
            <mxPoint as="offset" />
          </mxGeometry>
        </mxCell>
        <mxCell id="CQ69N3TDRFw6adATMWHt-36" style="edgeStyle=orthogonalEdgeStyle;rounded=0;orthogonalLoop=1;jettySize=auto;html=1;entryX=0;entryY=0.5;entryDx=0;entryDy=0;" edge="1" parent="WIyWlLk6GJQsqaUBKTNV-1" source="CQ69N3TDRFw6adATMWHt-28" target="WIyWlLk6GJQsqaUBKTNV-12">
          <mxGeometry relative="1" as="geometry" />
        </mxCell>
        <mxCell id="CQ69N3TDRFw6adATMWHt-28" value="" style="shape=waypoint;sketch=0;fillStyle=solid;size=6;pointerEvents=1;points=[];fillColor=none;resizable=0;rotatable=0;perimeter=centerPerimeter;snapToPoint=1;" vertex="1" parent="WIyWlLk6GJQsqaUBKTNV-1">
          <mxGeometry x="-120" y="275" width="20" height="20" as="geometry" />
        </mxCell>
        <mxCell id="CQ69N3TDRFw6adATMWHt-37" value="" style="whiteSpace=wrap;html=1;aspect=fixed;" vertex="1" parent="WIyWlLk6GJQsqaUBKTNV-1">
          <mxGeometry x="1350" y="-330" width="530" height="530" as="geometry" />
        </mxCell>
        <mxCell id="CQ69N3TDRFw6adATMWHt-38" value="&lt;h1&gt;Website&lt;/h1&gt;" style="text;html=1;strokeColor=none;fillColor=none;spacing=5;spacingTop=-20;whiteSpace=wrap;overflow=hidden;rounded=0;" vertex="1" parent="WIyWlLk6GJQsqaUBKTNV-1">
          <mxGeometry x="1370" y="-310" width="190" height="40" as="geometry" />
        </mxCell>
        <mxCell id="CQ69N3TDRFw6adATMWHt-40" value="" style="rounded=0;whiteSpace=wrap;html=1;fillColor=#dae8fc;strokeColor=#6c8ebf;" vertex="1" parent="WIyWlLk6GJQsqaUBKTNV-1">
          <mxGeometry x="1290" y="-150" width="150" height="250" as="geometry" />
        </mxCell>
        <mxCell id="CQ69N3TDRFw6adATMWHt-43" value="" style="rounded=0;whiteSpace=wrap;html=1;fillColor=#dae8fc;strokeColor=#6c8ebf;" vertex="1" parent="WIyWlLk6GJQsqaUBKTNV-1">
          <mxGeometry x="1550" y="-150" width="150" height="250" as="geometry" />
        </mxCell>
        <mxCell id="CQ69N3TDRFw6adATMWHt-44" value="" style="rounded=0;whiteSpace=wrap;html=1;fillColor=#dae8fc;strokeColor=#6c8ebf;" vertex="1" parent="WIyWlLk6GJQsqaUBKTNV-1">
          <mxGeometry x="1800" y="-150" width="150" height="250" as="geometry" />
        </mxCell>
        <mxCell id="CQ69N3TDRFw6adATMWHt-45" value="&lt;h1&gt;2024&lt;/h1&gt;" style="text;html=1;strokeColor=none;fillColor=none;spacing=5;spacingTop=-20;whiteSpace=wrap;overflow=hidden;rounded=0;" vertex="1" parent="WIyWlLk6GJQsqaUBKTNV-1">
          <mxGeometry x="1590" y="-180" width="70" height="45" as="geometry" />
        </mxCell>
        <mxCell id="CQ69N3TDRFw6adATMWHt-47" value="&lt;h1&gt;Bla&lt;/h1&gt;&lt;div&gt;Erste Zeile&lt;/div&gt;&lt;div&gt;&lt;br&gt;&lt;/div&gt;&lt;div&gt;Zweite Zeile&lt;/div&gt;&lt;div&gt;&lt;br&gt;&lt;/div&gt;&lt;div&gt;Dritte Zeile&lt;/div&gt;" style="text;html=1;strokeColor=none;fillColor=none;spacing=5;spacingTop=-20;whiteSpace=wrap;overflow=hidden;rounded=0;" vertex="1" parent="WIyWlLk6GJQsqaUBKTNV-1">
          <mxGeometry x="1570" y="-130" width="110" height="120" as="geometry" />
        </mxCell>
        <mxCell id="CQ69N3TDRFw6adATMWHt-48" value="&lt;h1&gt;Bla&lt;/h1&gt;&lt;div&gt;Erste Zeile&lt;/div&gt;&lt;div&gt;&lt;br&gt;&lt;/div&gt;&lt;div&gt;Zweite Zeile&lt;/div&gt;&lt;div&gt;&lt;br&gt;&lt;/div&gt;&lt;div&gt;Dritte Zeile&lt;/div&gt;" style="text;html=1;strokeColor=none;fillColor=none;spacing=5;spacingTop=-20;whiteSpace=wrap;overflow=hidden;rounded=0;" vertex="1" parent="WIyWlLk6GJQsqaUBKTNV-1">
          <mxGeometry x="1820" y="-130" width="110" height="120" as="geometry" />
        </mxCell>
        <mxCell id="CQ69N3TDRFw6adATMWHt-49" value="&lt;h1&gt;Bla&lt;/h1&gt;&lt;div&gt;Erste Zeile&lt;/div&gt;&lt;div&gt;&lt;br&gt;&lt;/div&gt;&lt;div&gt;Zweite Zeile&lt;/div&gt;&lt;div&gt;&lt;br&gt;&lt;/div&gt;&lt;div&gt;Dritte Zeile&lt;/div&gt;" style="text;html=1;strokeColor=none;fillColor=none;spacing=5;spacingTop=-20;whiteSpace=wrap;overflow=hidden;rounded=0;" vertex="1" parent="WIyWlLk6GJQsqaUBKTNV-1">
          <mxGeometry x="1310" y="-125" width="110" height="120" as="geometry" />
        </mxCell>
        <mxCell id="CQ69N3TDRFw6adATMWHt-50" value="&lt;h1&gt;2024&lt;/h1&gt;" style="text;html=1;strokeColor=none;fillColor=none;spacing=5;spacingTop=-20;whiteSpace=wrap;overflow=hidden;rounded=0;" vertex="1" parent="WIyWlLk6GJQsqaUBKTNV-1">
          <mxGeometry x="1330" y="-180" width="70" height="45" as="geometry" />
        </mxCell>
        <mxCell id="CQ69N3TDRFw6adATMWHt-51" value="&lt;h1&gt;2024&lt;/h1&gt;" style="text;html=1;strokeColor=none;fillColor=none;spacing=5;spacingTop=-20;whiteSpace=wrap;overflow=hidden;rounded=0;" vertex="1" parent="WIyWlLk6GJQsqaUBKTNV-1">
          <mxGeometry x="1840" y="-180" width="70" height="45" as="geometry" />
        </mxCell>
        <mxCell id="CQ69N3TDRFw6adATMWHt-52" value="" style="endArrow=none;dashed=1;html=1;rounded=0;entryX=0;entryY=0.5;entryDx=0;entryDy=0;exitX=1;exitY=0.5;exitDx=0;exitDy=0;" edge="1" parent="WIyWlLk6GJQsqaUBKTNV-1" source="CQ69N3TDRFw6adATMWHt-40" target="CQ69N3TDRFw6adATMWHt-43">
          <mxGeometry width="50" height="50" relative="1" as="geometry">
            <mxPoint x="1460" y="10" as="sourcePoint" />
            <mxPoint x="1510" y="-40" as="targetPoint" />
          </mxGeometry>
        </mxCell>
        <mxCell id="CQ69N3TDRFw6adATMWHt-53" value="" style="endArrow=none;dashed=1;html=1;rounded=0;exitX=1;exitY=0.5;exitDx=0;exitDy=0;entryX=0;entryY=0.5;entryDx=0;entryDy=0;" edge="1" parent="WIyWlLk6GJQsqaUBKTNV-1" target="CQ69N3TDRFw6adATMWHt-44">
          <mxGeometry width="50" height="50" relative="1" as="geometry">
            <mxPoint x="1700" y="-25.620000000000005" as="sourcePoint" />
            <mxPoint x="1810" y="-25.620000000000005" as="targetPoint" />
          </mxGeometry>
        </mxCell>
        <mxCell id="CQ69N3TDRFw6adATMWHt-56" value="Fetch" style="edgeStyle=orthogonalEdgeStyle;rounded=0;orthogonalLoop=1;jettySize=auto;html=1;entryX=0.5;entryY=1;entryDx=0;entryDy=0;" edge="1" parent="WIyWlLk6GJQsqaUBKTNV-1" source="CQ69N3TDRFw6adATMWHt-54" target="CQ69N3TDRFw6adATMWHt-37">
          <mxGeometry relative="1" as="geometry" />
        </mxCell>
        <mxCell id="CQ69N3TDRFw6adATMWHt-54" value="Song List in Contentful" style="shape=cylinder3;whiteSpace=wrap;html=1;boundedLbl=1;backgroundOutline=1;size=15;" vertex="1" parent="WIyWlLk6GJQsqaUBKTNV-1">
          <mxGeometry x="1210" y="222.5" width="110" height="125" as="geometry" />
        </mxCell>
        <mxCell id="CQ69N3TDRFw6adATMWHt-58" style="edgeStyle=orthogonalEdgeStyle;rounded=0;orthogonalLoop=1;jettySize=auto;html=1;" edge="1" parent="WIyWlLk6GJQsqaUBKTNV-1" source="CQ69N3TDRFw6adATMWHt-57" target="CQ69N3TDRFw6adATMWHt-28">
          <mxGeometry relative="1" as="geometry" />
        </mxCell>
        <mxCell id="CQ69N3TDRFw6adATMWHt-60" value="Image" style="edgeLabel;html=1;align=center;verticalAlign=middle;resizable=0;points=[];" vertex="1" connectable="0" parent="CQ69N3TDRFw6adATMWHt-58">
          <mxGeometry x="-0.6871" y="2" relative="1" as="geometry">
            <mxPoint y="-8" as="offset" />
          </mxGeometry>
        </mxCell>
        <mxCell id="CQ69N3TDRFw6adATMWHt-57" value="Cover" style="shape=card;whiteSpace=wrap;html=1;" vertex="1" parent="WIyWlLk6GJQsqaUBKTNV-1">
          <mxGeometry x="-270" y="360" width="80" height="100" as="geometry" />
        </mxCell>
        <mxCell id="CQ69N3TDRFw6adATMWHt-61" value="Promote to Instragram" style="rounded=1;whiteSpace=wrap;html=1;fontSize=12;glass=0;strokeWidth=1;shadow=0;" vertex="1" parent="WIyWlLk6GJQsqaUBKTNV-1">
          <mxGeometry x="990" y="265" width="120" height="40" as="geometry" />
        </mxCell>
        <mxCell id="CQ69N3TDRFw6adATMWHt-63" style="edgeStyle=orthogonalEdgeStyle;rounded=0;orthogonalLoop=1;jettySize=auto;html=1;entryX=0;entryY=0.5;entryDx=0;entryDy=0;entryPerimeter=0;" edge="1" parent="WIyWlLk6GJQsqaUBKTNV-1" source="CQ69N3TDRFw6adATMWHt-61" target="CQ69N3TDRFw6adATMWHt-54">
          <mxGeometry relative="1" as="geometry" />
        </mxCell>
        <mxCell id="CQ69N3TDRFw6adATMWHt-64" value="" style="shape=image;verticalLabelPosition=bottom;labelBackgroundColor=default;verticalAlign=top;aspect=fixed;imageAspect=0;image=https://seeklogo.com/images/C/contentful-logo-C395C545BF-seeklogo.com.png;imageBackground=default;imageBorder=none;perimeterSpacing=0;" vertex="1" parent="WIyWlLk6GJQsqaUBKTNV-1">
          <mxGeometry x="1227.93" y="205" width="62.07" height="70" as="geometry" />
        </mxCell>
      </root>
    </mxGraphModel>
  </diagram>
</mxfile>
